<?xml version="1.0" encoding="utf-8" ?><svg xmlns="http://www.w3.org/2000/svg" xmlns:xlink="http://www.w3.org/1999/xlink" width="1024" height="1024" viewBox="0 0 1024 1024"><path fill="#F8BC1C" d="M503.97 29.0735C767.522 24.5893 984.812 234.597 989.313 498.149C993.813 761.7 783.818 979.004 520.267 983.52C256.693 988.036 39.3668 778.02 34.8663 514.446C30.3658 250.871 240.395 33.558 503.97 29.0735ZM646.881 754.123C672.853 750.811 697.455 746.475 722.57 738.876C742.781 733.548 765.338 727.374 761.208 700.996C753.966 654.751 724.006 614.013 686.723 586.864C666.279 571.977 637.55 558.066 613.204 551.674C605.897 556.978 599.067 562.032 591.131 566.441C559.424 583.897 522.853 590.428 487.064 585.028C458.043 580.407 434.148 569.552 410.899 552.274C410.305 551.832 409.035 551.952 408.313 552.06C356.531 565.285 312.225 598.744 285.335 644.931C276.14 660.735 260.781 693.899 265.194 712.223C267.227 720.664 275.042 730.666 282.977 734.556C298.878 742.351 322.647 745.596 340.037 748.358C417.754 760.93 496.61 764.991 575.208 760.47C597.401 759.292 625.004 757.713 646.881 754.123ZM519.805 545.276C600.622 541.235 662.847 472.423 658.764 391.609C654.682 310.795 585.837 248.605 505.025 252.73C424.273 256.852 362.138 325.634 366.218 406.389C370.298 487.144 439.048 549.314 519.805 545.276Z"/></svg>